<svg width="1512" height="120" viewBox="0 0 1512 120" fill="none" xmlns="http://www.w3.org/2000/svg">
<rect x="1368" y="60.9474" width="250.241" height="201.297" rx="40" transform="rotate(-45 1368 60.9474)" fill="url(#paint0_linear_121_70)"/>
<rect x="1399.34" y="-92" width="250.241" height="201.297" rx="40" transform="rotate(45 1399.34 -92)" fill="url(#paint1_linear_121_70)"/>
<rect x="1155" y="60.9474" width="250.241" height="201.297" rx="40" transform="rotate(-45 1155 60.9474)" fill="url(#paint2_linear_121_70)"/>
<rect x="1183.34" y="-92.0001" width="250.241" height="201.297" rx="40" transform="rotate(45 1183.34 -92.0001)" fill="url(#paint3_linear_121_70)"/>
<rect x="939" y="60.9474" width="250.241" height="201.297" rx="40" transform="rotate(-45 939 60.9474)" fill="url(#paint4_linear_121_70)"/>
<rect x="970.339" y="-92.0001" width="250.241" height="201.297" rx="40" transform="rotate(45 970.339 -92.0001)" fill="url(#paint5_linear_121_70)"/>
<rect x="726" y="60.9473" width="250.241" height="201.297" rx="40" transform="rotate(-45 726 60.9473)" fill="url(#paint6_linear_121_70)"/>
<rect x="767.339" y="-92.0001" width="250.241" height="201.297" rx="40" transform="rotate(45 767.339 -92.0001)" fill="url(#paint7_linear_121_70)"/>
<rect x="523" y="60.9474" width="250.241" height="201.297" rx="40" transform="rotate(-45 523 60.9474)" fill="url(#paint8_linear_121_70)"/>
<rect x="554.339" y="-92.0001" width="250.241" height="201.297" rx="40" transform="rotate(45 554.339 -92.0001)" fill="url(#paint9_linear_121_70)"/>
<rect x="310" y="60.9473" width="250.241" height="201.297" rx="40" transform="rotate(-45 310 60.9473)" fill="url(#paint10_linear_121_70)"/>
<rect x="338.339" y="-92.0001" width="250.241" height="201.297" rx="40" transform="rotate(45 338.339 -92.0001)" fill="url(#paint11_linear_121_70)"/>
<rect x="94" y="60.9473" width="250.241" height="201.297" rx="40" transform="rotate(-45 94 60.9473)" fill="url(#paint12_linear_121_70)"/>
<rect x="125.339" y="-92.0001" width="250.241" height="201.297" rx="40" transform="rotate(45 125.339 -92.0001)" fill="url(#paint13_linear_121_70)"/>
<rect x="-119" y="60.9473" width="250.241" height="201.297" rx="40" transform="rotate(-45 -119 60.9473)" fill="url(#paint14_linear_121_70)"/>
<defs>
<linearGradient id="paint0_linear_121_70" x1="1323.42" y1="256.853" x2="1600.78" y2="304.51" gradientUnits="userSpaceOnUse">
<stop offset="0.489583" stop-color="#156032"/>
<stop offset="1" stop-color="#2CA062"/>
</linearGradient>
<linearGradient id="paint1_linear_121_70" x1="1354.75" y1="103.906" x2="1632.12" y2="151.563" gradientUnits="userSpaceOnUse">
<stop offset="0.489583" stop-color="#156032"/>
<stop offset="1" stop-color="#2CA062"/>
</linearGradient>
<linearGradient id="paint2_linear_121_70" x1="1110.42" y1="256.853" x2="1387.78" y2="304.51" gradientUnits="userSpaceOnUse">
<stop offset="0.489583" stop-color="#156032"/>
<stop offset="1" stop-color="#2CA062"/>
</linearGradient>
<linearGradient id="paint3_linear_121_70" x1="1138.75" y1="103.906" x2="1416.12" y2="151.563" gradientUnits="userSpaceOnUse">
<stop offset="0.489583" stop-color="#156032"/>
<stop offset="1" stop-color="#2CA062"/>
</linearGradient>
<linearGradient id="paint4_linear_121_70" x1="894.415" y1="256.853" x2="1171.78" y2="304.51" gradientUnits="userSpaceOnUse">
<stop offset="0.489583" stop-color="#156032"/>
<stop offset="1" stop-color="#2CA062"/>
</linearGradient>
<linearGradient id="paint5_linear_121_70" x1="925.754" y1="103.906" x2="1203.12" y2="151.563" gradientUnits="userSpaceOnUse">
<stop offset="0.489583" stop-color="#156032"/>
<stop offset="1" stop-color="#2CA062"/>
</linearGradient>
<linearGradient id="paint6_linear_121_70" x1="681.415" y1="256.853" x2="958.776" y2="304.51" gradientUnits="userSpaceOnUse">
<stop offset="0.489583" stop-color="#156032"/>
<stop offset="1" stop-color="#2CA062"/>
</linearGradient>
<linearGradient id="paint7_linear_121_70" x1="722.754" y1="103.906" x2="1000.12" y2="151.563" gradientUnits="userSpaceOnUse">
<stop offset="0.489583" stop-color="#156032"/>
<stop offset="1" stop-color="#2CA062"/>
</linearGradient>
<linearGradient id="paint8_linear_121_70" x1="478.415" y1="256.853" x2="755.776" y2="304.51" gradientUnits="userSpaceOnUse">
<stop offset="0.489583" stop-color="#156032"/>
<stop offset="1" stop-color="#2CA062"/>
</linearGradient>
<linearGradient id="paint9_linear_121_70" x1="509.754" y1="103.906" x2="787.115" y2="151.563" gradientUnits="userSpaceOnUse">
<stop offset="0.489583" stop-color="#156032"/>
<stop offset="1" stop-color="#2CA062"/>
</linearGradient>
<linearGradient id="paint10_linear_121_70" x1="265.415" y1="256.853" x2="542.776" y2="304.51" gradientUnits="userSpaceOnUse">
<stop offset="0.489583" stop-color="#156032"/>
<stop offset="1" stop-color="#2CA062"/>
</linearGradient>
<linearGradient id="paint11_linear_121_70" x1="293.754" y1="103.906" x2="571.115" y2="151.563" gradientUnits="userSpaceOnUse">
<stop offset="0.489583" stop-color="#156032"/>
<stop offset="1" stop-color="#2CA062"/>
</linearGradient>
<linearGradient id="paint12_linear_121_70" x1="49.4152" y1="256.853" x2="326.776" y2="304.51" gradientUnits="userSpaceOnUse">
<stop offset="0.489583" stop-color="#156032"/>
<stop offset="1" stop-color="#2CA062"/>
</linearGradient>
<linearGradient id="paint13_linear_121_70" x1="80.7539" y1="103.906" x2="358.115" y2="151.563" gradientUnits="userSpaceOnUse">
<stop offset="0.489583" stop-color="#156032"/>
<stop offset="1" stop-color="#2CA062"/>
</linearGradient>
<linearGradient id="paint14_linear_121_70" x1="-163.585" y1="256.853" x2="113.776" y2="304.51" gradientUnits="userSpaceOnUse">
<stop offset="0.489583" stop-color="#156032"/>
<stop offset="1" stop-color="#2CA062"/>
</linearGradient>
</defs>
</svg>
