<svg width="1512" height="982" viewBox="0 0 1512 982" fill="none" xmlns="http://www.w3.org/2000/svg">
<rect x="0.000244141" y="3.99982" width="1512" height="975" fill="#4E504E"/>
<rect x="913.416" y="592.314" width="624.019" height="632.907" rx="129" transform="rotate(45 913.416 592.314)" fill="url(#paint0_linear_352_75)"/>
<rect x="1839.51" y="1013.3" width="524.982" height="757.022" rx="114" transform="rotate(135 1839.51 1013.3)" fill="url(#paint1_linear_352_75)"/>
<rect x="1701.3" y="104" width="524.982" height="757.022" rx="114" transform="rotate(45 1701.3 104)" fill="url(#paint2_linear_352_75)"/>
<rect x="1114.76" y="-409.392" width="828.781" height="559.844" rx="90" transform="rotate(45 1114.76 -409.392)" fill="url(#paint3_linear_352_75)"/>
<rect x="534.028" y="-480.737" width="736.78" height="614.419" rx="63" transform="rotate(45 534.028 -480.737)" fill="url(#paint4_linear_352_75)"/>
<rect x="113.557" y="-174.636" width="538.996" height="782.847" rx="132" transform="rotate(45 113.557 -174.636)" fill="url(#paint5_linear_352_75)"/>
<rect x="171.806" y="330.12" width="901.033" height="603.788" rx="98" transform="rotate(45 171.806 330.12)" fill="url(#paint6_linear_352_75)"/>
<rect x="378.129" y="672.813" width="660.3" height="608.294" rx="98" transform="rotate(45 378.129 672.813)" fill="url(#paint7_linear_352_75)"/>
<path d="M589.054 813.292C676.615 725.731 825.261 799.854 808.013 922.477L802.875 959.011C800.663 974.734 802.57 990.762 808.409 1005.53C845.024 1098.12 728.622 1174.55 658.215 1104.14L562.855 1008.78C516.107 962.033 516.107 886.24 562.854 839.492L589.054 813.292Z" fill="url(#paint8_linear_352_75)"/>
<g filter="url(#filter0_d_352_75)">
<rect x="756.337" y="-62" width="803.747" height="803.75" rx="80" transform="rotate(45 756.337 -62)" fill="#9A9A6D"/>
</g>
<g style="mix-blend-mode:overlay" opacity="0.6">
<rect x="733.551" y="-717" width="1642.69" height="1642.68" rx="601.902" transform="rotate(45 733.551 -717)" fill="url(#paint9_radial_352_75)"/>
</g>
<defs>
<filter id="filter0_d_352_75" x="127.137" y="-117.863" width="1258.4" height="1258.4" filterUnits="userSpaceOnUse" color-interpolation-filters="sRGB">
<feFlood flood-opacity="0" result="BackgroundImageFix"/>
<feColorMatrix in="SourceAlpha" type="matrix" values="0 0 0 0 0 0 0 0 0 0 0 0 0 0 0 0 0 0 127 0" result="hardAlpha"/>
<feMorphology radius="30" operator="dilate" in="SourceAlpha" result="effect1_dropShadow_352_75"/>
<feOffset dy="5"/>
<feGaussianBlur stdDeviation="32"/>
<feComposite in2="hardAlpha" operator="out"/>
<feColorMatrix type="matrix" values="0 0 0 0 0 0 0 0 0 0 0 0 0 0 0 0 0 0 0.25 0"/>
<feBlend mode="normal" in2="BackgroundImageFix" result="effect1_dropShadow_352_75"/>
<feBlend mode="normal" in="SourceGraphic" in2="effect1_dropShadow_352_75" result="shape"/>
</filter>
<linearGradient id="paint0_linear_352_75" x1="924.365" y1="893.704" x2="1120.82" y2="920.983" gradientUnits="userSpaceOnUse">
<stop stop-color="#146233"/>
<stop offset="1" stop-color="#138445"/>
</linearGradient>
<linearGradient id="paint1_linear_352_75" x1="2247.92" y1="1053.36" x2="2189.76" y2="1716.6" gradientUnits="userSpaceOnUse">
<stop offset="0.195813" stop-color="#1C7435"/>
<stop offset="1" stop-color="#1E954D"/>
</linearGradient>
<linearGradient id="paint2_linear_352_75" x1="2109.7" y1="144.064" x2="1892.41" y2="706.533" gradientUnits="userSpaceOnUse">
<stop offset="0.195813" stop-color="#135137"/>
<stop offset="1" stop-color="#14894A"/>
</linearGradient>
<linearGradient id="paint3_linear_352_75" x1="1065.36" y1="229.587" x2="1724.38" y2="-357.311" gradientUnits="userSpaceOnUse">
<stop stop-color="#2CA062"/>
<stop offset="1" stop-color="#156032"/>
</linearGradient>
<linearGradient id="paint4_linear_352_75" x1="1259.51" y1="-176.174" x2="482.85" y2="-103.096" gradientUnits="userSpaceOnUse">
<stop stop-color="#0E7135"/>
<stop offset="1" stop-color="#14894A"/>
</linearGradient>
<linearGradient id="paint5_linear_352_75" x1="812.342" y1="-443.392" x2="-86.0832" y2="265.887" gradientUnits="userSpaceOnUse">
<stop stop-color="#14894A"/>
<stop offset="0.475961" stop-color="#155F32"/>
<stop offset="1" stop-color="#4E504E"/>
</linearGradient>
<linearGradient id="paint6_linear_352_75" x1="215.978" y1="447.305" x2="601.19" y2="955.853" gradientUnits="userSpaceOnUse">
<stop stop-color="#14894A"/>
<stop offset="1" stop-color="#2CA062"/>
</linearGradient>
<linearGradient id="paint7_linear_352_75" x1="410.5" y1="790.872" x2="813.325" y2="1177.7" gradientUnits="userSpaceOnUse">
<stop stop-color="#14894A"/>
<stop offset="1" stop-color="#2CA062"/>
</linearGradient>
<linearGradient id="paint8_linear_352_75" x1="687.745" y1="731.901" x2="813.18" y2="912.787" gradientUnits="userSpaceOnUse">
<stop stop-color="#146233"/>
<stop offset="1" stop-color="#138445"/>
</linearGradient>
<radialGradient id="paint9_radial_352_75" cx="0" cy="0" r="1" gradientUnits="userSpaceOnUse" gradientTransform="translate(1554.9 104.34) rotate(90) scale(821.34 821.345)">
<stop stop-color="#14F1BC"/>
<stop offset="1" stop-color="#2CA062" stop-opacity="0"/>
</radialGradient>
</defs>
</svg>
