<svg width="290" height="290" viewBox="0 0 290 290" fill="none" xmlns="http://www.w3.org/2000/svg">
<path fill-rule="evenodd" clip-rule="evenodd" d="M290 145C290 225.081 225.081 290 145 290C64.9187 290 0 225.081 0 145C0 64.9187 64.9187 0 145 0C225.081 0 290 64.9187 290 145ZM105.657 82.9787C105.657 82.9787 103.676 77.8302 97.735 63.9674C91.7938 50.1046 91.7938 43.7673 91.7938 43.7673C91.7938 43.7673 89.8134 31.8849 101.696 24.3594C113.578 16.8338 125.065 25.5476 125.065 25.5476C125.065 25.5476 127.045 14.0613 146.849 14.0613C166.653 14.0613 168.633 25.5476 168.633 25.5476C168.633 25.5476 181.308 18.0222 191.606 24.3594C201.904 30.6965 201.904 43.7673 201.904 43.7673C201.904 43.7673 201.904 49.7085 196.359 63.9674C190.814 78.2262 188.041 82.9787 188.041 82.9787V83.772H172.118C172.151 83.6502 172.178 83.5253 172.198 83.3975L177.465 49.2871C177.747 47.4596 176.495 45.7494 174.667 45.4671C172.84 45.1849 171.13 46.4376 170.847 48.2651L165.58 82.3755C165.505 82.8572 165.538 83.3306 165.659 83.772H149.918C149.983 83.5188 150.018 83.2533 150.018 82.9798V44.1639C150.018 42.4139 148.599 40.9953 146.849 40.9953C145.099 40.9953 143.68 42.414 143.68 44.1639V82.9798C143.68 83.2533 143.715 83.5188 143.78 83.772H128.449C128.484 83.468 128.478 83.1541 128.425 82.8372L122.767 48.7892C122.464 46.9651 120.74 45.7321 118.916 46.0352C117.092 46.3383 115.859 48.0628 116.162 49.8869L121.792 83.772H105.657V82.9787ZM105.657 90.1093H188.041V103.576C178.836 133.53 117.444 133.53 105.657 103.576V90.1093ZM74.9363 115.215C82.4593 107.692 92.0835 106.597 99.1136 107.095C103.619 118.697 116.805 127.859 133.591 131.087C135.14 135.597 135.14 138.98 135.14 138.98H145.439H155.737C155.737 138.98 155.737 135.894 157.231 131.606C175.295 128.981 189.727 119.58 194.644 107.449C201.227 107.579 209.173 109.239 215.149 115.215C227.427 127.493 232.576 140.96 228.219 154.823C223.862 168.686 208.019 180.172 208.019 180.172V201.56C208.019 201.56 208.019 204.729 206.435 210.274C204.85 215.819 202.87 218.196 202.87 218.196L189.403 233.643L202.474 244.733C202.474 244.733 203.662 246.317 202.474 247.902C201.286 249.486 199.305 248.694 199.305 248.694L185.839 238L181.878 242.357L197.721 255.427C197.721 255.427 198.513 257.012 197.325 258.596C196.137 260.18 194.552 259.388 194.552 259.388L178.313 246.713L159.301 268.498C159.301 268.498 154.944 275.231 145.439 275.231C135.933 275.231 131.972 268.498 131.972 268.498L112.96 246.713L97.909 258.596C97.909 258.596 95.8493 260.972 93.9482 258.596C92.3638 256.615 93.9482 255.031 93.9482 255.031L108.999 242.357L105.434 238L92.3638 248.298C92.3638 248.298 90.3834 250.278 88.7991 248.298C87.2148 246.317 88.7991 244.337 88.7991 244.337L101.87 233.643L88.403 218.196C88.403 218.196 86.0266 215.819 84.4422 210.274C82.8579 204.729 82.8579 201.56 82.8579 201.56V180.172C82.8579 180.172 66.6186 167.894 62.6578 154.823C58.697 141.752 61.4696 128.682 74.9363 115.215ZM174.352 180.172C170.196 180.172 166.827 183.541 166.827 187.698V201.956C166.827 206.113 170.196 209.482 174.352 209.482C178.509 209.482 181.878 206.113 181.878 201.956V187.698C181.878 183.541 178.509 180.172 174.352 180.172ZM108.999 187.698C108.999 183.541 112.368 180.172 116.525 180.172C120.681 180.172 124.05 183.541 124.05 187.698V201.956C124.05 206.113 120.681 209.482 116.525 209.482C112.368 209.482 108.999 206.113 108.999 201.956V187.698ZM182.605 135.351C176.882 141.074 176.882 150.353 182.605 156.076L192.968 166.438L203.331 156.076C209.054 150.353 209.054 141.074 203.331 135.351C197.607 129.627 188.328 129.627 182.605 135.351ZM87.6754 156.076C81.9523 150.353 81.9523 141.074 87.6754 135.351C93.3985 129.627 102.678 129.627 108.401 135.351C114.124 141.074 114.124 150.353 108.401 156.076L98.038 166.438L87.6754 156.076ZM159.301 256.219H131.972L139.934 265.624C141.264 267.196 143.219 268.102 145.278 268.102C147.234 268.102 149.101 267.284 150.427 265.846L159.301 256.219Z" fill="#F0F9F2"/>
</svg>
