<svg width="228" height="228" viewBox="0 0 228 228" fill="none" xmlns="http://www.w3.org/2000/svg">
<circle cx="114" cy="114" r="114" fill="#14894A"/>
<path d="M88.4241 80.1784C94.9241 80.1784 100.424 85.6784 100.424 92.1784C100.424 98.9284 94.9241 104.178 88.4241 104.178C81.6741 104.178 76.4241 98.9284 76.4241 92.1784C76.4241 85.6784 81.6741 80.1784 88.4241 80.1784ZM162.174 58.1784C171.174 58.1784 178.174 65.4284 178.174 74.1784V154.178C178.174 163.178 170.924 170.178 162.174 170.178H66.1741C57.4241 170.178 50.1741 163.178 50.1741 154.178V74.1784C50.1741 65.4284 57.4241 58.1784 66.1741 58.1784H162.174ZM166.174 152.678V74.1784C166.174 72.1784 164.424 70.1784 162.174 70.1784H66.1741C64.1741 70.1784 62.1741 72.1784 62.1741 74.1784L62.4241 154.178L81.1741 130.678C82.1741 129.678 83.4241 128.928 84.9241 128.928C86.4241 128.928 87.6741 129.678 88.6741 130.678L97.9241 142.178L124.424 106.178C125.424 104.928 126.674 104.178 128.424 104.178C129.924 104.178 131.174 104.928 131.924 106.178L166.174 152.678Z" fill="white"/>
</svg>
